<svg width="150" height="150" viewBox="0 0 150 150" fill="none" xmlns="http://www.w3.org/2000/svg">
<path d="M123.631 2.73721L112.683 136.496C112.135 142.336 107.026 147.08 101.186 147.08H48.4489C42.6095 147.08 37.5 142.336 36.9526 136.496L26.0037 2.73721H123.631Z" fill="#F4F5F7"/>
<path d="M50.0913 136.679L39.1424 2.91971H26.1862L37.1351 136.679C37.6825 142.518 42.792 147.263 48.6314 147.263H61.5876C55.5657 147.263 50.4562 142.518 50.0913 136.679Z" fill="white"/>
<path d="M103.193 121.715L107.938 50.9124C96.4416 54.927 84.7627 54.562 74.7262 51.0949C60.6751 45.8029 41.8795 53.1022 41.8795 53.1022L46.989 121.715H103.193Z" fill="#3696EF"/>
<path d="M68.8868 49.4525C55.9306 47.6277 41.8795 52.9197 41.8795 52.9197L46.989 121.533H58.8503L53.5583 53.1022C53.5583 53.1022 60.3102 50.5474 68.8868 49.4525Z" fill="#6FB2F1"/>
<path d="M123.631 0H26.1861C25.4562 0 24.7262 0.364963 24.1788 0.912409C23.6313 1.45985 23.4489 2.18978 23.4489 3.10219L34.3978 136.861C34.9452 144.161 41.3321 150 48.6313 150H101.369C108.668 150 115.055 144.161 115.602 136.861L126.551 3.10219C126.551 2.37226 126.369 1.64234 125.821 0.912409C125.274 0.364963 124.544 0 123.631 0ZM101.369 144.343H48.4489C44.2518 144.343 40.2372 140.876 39.8722 136.496H109.945C109.398 140.876 105.566 144.343 101.369 144.343ZM110.493 131.022H39.3248L29.1058 5.65693H120.712L110.493 131.022Z" fill="#56596A"/>
<path d="M44.2518 121.898C44.4343 123.358 45.5292 124.453 46.989 124.453H103.193C104.653 124.453 105.931 123.358 105.931 121.898L110.675 51.0949C110.675 50.1825 110.31 49.2701 109.58 48.7226C108.85 48.1752 107.938 47.9927 107.026 48.3577C96.6241 52.0073 85.4927 52.0073 75.6387 48.5402C71.989 47.2628 67.792 46.5329 63.0474 46.5329C51.5511 46.5329 41.1496 50.5474 40.7847 50.7299C39.6898 51.0949 38.9598 52.3723 38.9598 53.4672L44.2518 121.898ZM63.2299 52.0073C67.2445 52.0073 70.8941 52.5547 73.9963 53.6496C83.6679 57.1168 94.6168 57.4818 105.018 54.7445L100.639 118.978H49.5438L44.6168 55.1095C48.0839 54.0146 55.5657 52.0073 63.2299 52.0073Z" fill="#56596A"/>
</svg>
