<svg width="150" height="150" viewBox="0 0 150 150" fill="none" xmlns="http://www.w3.org/2000/svg">
<path d="M150 75C150 94.8912 142.098 113.968 128.033 128.033C113.968 142.098 94.8912 150 75 150C55.1088 150 36.0322 142.098 21.967 128.033C7.90176 113.968 0 94.8912 0 75C0 55.1088 7.90176 36.0322 21.967 21.967C36.0322 7.90176 55.1088 0 75 0C94.8912 0 113.968 7.90176 128.033 21.967C142.098 36.0322 150 55.1088 150 75V75ZM112.781 46.5937C112.112 45.9264 111.314 45.401 110.437 45.0489C109.559 44.6968 108.62 44.5252 107.675 44.5445C106.73 44.5637 105.798 44.7734 104.936 45.161C104.073 45.5485 103.298 46.106 102.656 46.8L70.0969 88.2844L50.475 68.6531C49.1421 67.4111 47.3792 66.735 45.5576 66.7671C43.736 66.7993 41.998 67.5372 40.7098 68.8254C39.4215 70.1137 38.6836 71.8517 38.6515 73.6732C38.6193 75.4948 39.2955 77.2577 40.5375 78.5906L65.3437 103.406C66.012 104.073 66.8078 104.599 67.6836 104.952C68.5594 105.305 69.4973 105.477 70.4414 105.46C71.3854 105.442 72.3163 105.235 73.1784 104.85C74.0405 104.465 74.8163 103.91 75.4594 103.219L112.884 56.4375C114.16 55.1109 114.865 53.337 114.848 51.4965C114.83 49.656 114.092 47.8958 112.791 46.5937H112.781Z" fill="white"/>
</svg>
