<svg width="23" height="25" viewBox="0 0 23 25" fill="none" xmlns="http://www.w3.org/2000/svg">
<path d="M0.480592 0.531048C0.788408 0.204942 1.20584 0.0217466 1.64109 0.0217466C2.07634 0.0217466 2.49377 0.204942 2.80159 0.531048L11.4897 9.7382L20.1779 0.531048C20.3293 0.364908 20.5104 0.232389 20.7107 0.141224C20.911 0.0500588 21.1263 0.00207274 21.3443 6.56777e-05C21.5622 -0.00194138 21.7784 0.0420709 21.9801 0.129534C22.1818 0.216998 22.3651 0.34616 22.5192 0.509486C22.6734 0.672812 22.7952 0.867031 22.8778 1.08081C22.9603 1.29459 23.0018 1.52364 22.9999 1.75461C22.998 1.98558 22.9528 2.21384 22.8667 2.42606C22.7807 2.63829 22.6557 2.83023 22.4989 2.99069L13.8107 12.1978L22.4989 21.405C22.7979 21.7331 22.9633 22.1725 22.9596 22.6286C22.9559 23.0847 22.7832 23.5209 22.4789 23.8435C22.1746 24.166 21.7629 24.3489 21.3325 24.3529C20.9021 24.3568 20.4875 24.1815 20.1779 23.8646L11.4897 14.6575L2.80159 23.8646C2.49201 24.1815 2.07738 24.3568 1.647 24.3529C1.21662 24.3489 0.804924 24.166 0.500587 23.8435C0.19625 23.5209 0.0236218 23.0847 0.019882 22.6286C0.0161421 22.1725 0.18159 21.7331 0.480592 21.405L9.16874 12.1978L0.480592 2.99069C0.172869 2.66449 0 2.22212 0 1.76087C0 1.29962 0.172869 0.857251 0.480592 0.531048Z" fill="white"/>
</svg>
