<svg width="20" height="20" viewBox="0 0 20 20" fill="none" xmlns="http://www.w3.org/2000/svg">
<path fill-rule="evenodd" clip-rule="evenodd" d="M16.8837 15.405C18.0793 13.8818 18.7359 12.0051 18.7506 10.0689C18.7653 8.13258 18.1373 6.24612 16.965 4.70499C16.1001 3.56718 14.9697 2.65853 13.6726 2.05849C12.3755 1.45845 10.9511 1.18527 9.52403 1.26284C8.09695 1.34041 6.71058 1.76636 5.48614 2.50347C4.26169 3.24057 3.23644 4.26639 2.5 5.49124V2.49999H1.25V6.87499L1.875 7.49999H6.25V6.24999H3.51375C4.34879 4.80638 5.6406 3.68179 7.18547 3.05355C8.73034 2.42531 10.4404 2.32916 12.0459 2.78027C13.6515 3.23138 15.0612 4.20407 16.0528 5.54498C17.0444 6.88588 17.5615 8.5187 17.5225 10.186C17.4835 11.8532 16.8906 13.4601 15.8374 14.7532C14.7841 16.0462 13.3305 16.9519 11.7056 17.3274C10.0807 17.703 8.377 17.527 6.86321 16.8272C5.34941 16.1273 4.11162 14.9436 3.345 13.4625L2.23625 14.04C2.91141 15.3386 3.90155 16.4472 5.11602 17.2641C6.33049 18.081 7.73049 18.5802 9.18784 18.7161C10.6452 18.8519 12.1133 18.6199 13.4578 18.0415C14.8023 17.463 15.9803 16.5565 16.8837 15.405ZM12.6825 14.1925L13.5675 13.3087L10 9.73999V4.99999H8.75V9.99999L8.9325 10.4425L12.6825 14.1925Z" fill="white"/>
</svg>
