<svg width="15" height="17" viewBox="0 0 15 17" fill="none" xmlns="http://www.w3.org/2000/svg">
<path d="M9 2.5C9 2.10218 8.84196 1.72064 8.56066 1.43934C8.27936 1.15804 7.89782 1 7.5 1C7.10218 1 6.72064 1.15804 6.43934 1.43934C6.15804 1.72064 6 2.10218 6 2.5H5C5 1.83696 5.26339 1.20107 5.73223 0.732233C6.20107 0.263392 6.83696 0 7.5 0C8.16304 0 8.79893 0.263392 9.26777 0.732233C9.73661 1.20107 10 1.83696 10 2.5H14.5C14.6326 2.5 14.7598 2.55268 14.8536 2.64645C14.9473 2.74021 15 2.86739 15 3C15 3.13261 14.9473 3.25979 14.8536 3.35355C14.7598 3.44732 14.6326 3.5 14.5 3.5H13.946L12.65 14.73C12.5936 15.2174 12.36 15.667 11.9936 15.9934C11.6272 16.3198 11.1537 16.5001 10.663 16.5H4.337C3.84635 16.5001 3.37279 16.3198 3.00642 15.9934C2.64005 15.667 2.40642 15.2174 2.35 14.73L1.053 3.5H0.5C0.382974 3.50004 0.269643 3.45903 0.179741 3.38411C0.0898396 3.30919 0.0290645 3.20511 0.0079999 3.09L0 3C0 2.86739 0.0526785 2.74021 0.146447 2.64645C0.240215 2.55268 0.367392 2.5 0.5 2.5H9ZM12.938 3.5H2.061L3.343 14.615C3.37122 14.8588 3.4881 15.0837 3.6714 15.2469C3.85469 15.4101 4.09159 15.5002 4.337 15.5H10.663C10.9082 15.4999 11.1449 15.4097 11.328 15.2465C11.5111 15.0834 11.6278 14.8586 11.656 14.615L12.938 3.5ZM6 6C6.245 6 6.45 6.155 6.492 6.359L6.5 6.438V12.563C6.5 12.804 6.276 13 6 13C5.755 13 5.55 12.845 5.508 12.641L5.5 12.562V6.439C5.5 6.197 5.724 6.001 6 6.001V6ZM9 6C9.245 6 9.45 6.155 9.492 6.359L9.5 6.438V12.563C9.5 12.804 9.276 13 9 13C8.755 13 8.55 12.845 8.508 12.641L8.5 12.562V6.439C8.5 6.197 8.724 6.001 9 6.001V6Z" fill="white"/>
</svg>
