<svg width="100" height="100" viewBox="0 0 100 100" fill="none" xmlns="http://www.w3.org/2000/svg">
<circle cx="50" cy="50" r="50" fill="white"/>
<path d="M66.3941 25.9124L62.7445 70.4988C62.562 72.4453 60.8589 74.0268 58.9124 74.0268H41.3333C39.3868 74.0268 37.6837 72.4453 37.5012 70.4988L33.8516 25.9124H66.3941Z" fill="#F4F5F7"/>
<path d="M41.8807 70.5596L38.2311 25.9732H33.9124L37.562 70.5596C37.7445 72.5061 39.4476 74.0876 41.3941 74.0876H45.7128C43.7055 74.0876 42.0024 72.5061 41.8807 70.5596Z" fill="white"/>
<path d="M59.5815 65.5718L61.163 41.9708C57.3309 43.309 53.438 43.1874 50.0925 42.0316C45.4088 40.2676 39.1436 42.7007 39.1436 42.7007L40.8467 65.5718H59.5815Z" fill="#3696EF"/>
<path d="M48.146 41.4842C43.8273 40.8759 39.1436 42.6399 39.1436 42.6399L40.8467 65.511H44.8005L43.0365 42.7007C43.0365 42.7007 45.2871 41.8491 48.146 41.4842Z" fill="#6FB2F1"/>
<path d="M66.3942 25H33.9124C33.6691 25 33.4258 25.1217 33.2433 25.3041C33.0608 25.4866 33 25.7299 33 26.0341L36.6496 70.6204C36.8321 73.0535 38.9611 75 41.3942 75H58.9732C61.4063 75 63.5353 73.0535 63.7178 70.6204L67.3674 26.0341C67.3674 25.7908 67.3066 25.5474 67.1241 25.3041C66.9416 25.1217 66.6983 25 66.3942 25ZM58.9732 73.1144H41.3333C39.9343 73.1144 38.5961 71.9586 38.4745 70.4988H61.8321C61.6496 71.9586 60.3723 73.1144 58.9732 73.1144ZM62.0146 68.674H38.292L34.8856 26.8856H65.4209L62.0146 68.674Z" fill="#56596A"/>
<path d="M39.9343 65.6326C39.9951 66.1192 40.3601 66.4842 40.8467 66.4842H59.5815C60.0681 66.4842 60.4939 66.1192 60.4939 65.6326L62.0754 42.0316C62.0754 41.7275 61.9537 41.4234 61.7104 41.2409C61.4671 41.0584 61.163 40.9976 60.8588 41.1192C57.3917 42.3358 53.6812 42.3358 50.3966 41.1801C49.18 40.7543 47.781 40.511 46.1995 40.511C42.3674 40.511 38.9002 41.8492 38.7786 41.91C38.4136 42.0316 38.1703 42.4574 38.1703 42.8224L39.9343 65.6326ZM46.2603 42.3358C47.5985 42.3358 48.8151 42.5183 49.8491 42.8832C53.073 44.0389 56.7226 44.1606 60.1897 43.2482L58.7299 64.6594H41.6983L40.0559 43.3698C41.2117 43.0049 43.7056 42.3358 46.2603 42.3358Z" fill="#56596A"/>
</svg>
